<svg xmlns="http://www.w3.org/2000/svg" xmlns:xlink="http://www.w3.org/1999/xlink" viewBox="0 0 367.5 150"><defs><style>.cls-1{fill:none;}.cls-2{clip-path:url(#clip-path);}.cls-3{fill:#892522;}.cls-4{fill:#006139;}.cls-5{fill:#1d1d1b;}</style><clipPath id="clip-path" transform="translate(0 0)"><rect class="cls-1" width="367.5" height="150"/></clipPath></defs><g id="Layer_2" data-name="Layer 2"><g id="Layer_1-2" data-name="Layer 1"><g class="cls-2"><path d="M135.09,120c-48.2.12-87.07,0-120.09,0A74.11,74.11,0,0,0,21.87,128c1.72-1.06,3.58-2.54,4.65-3.26l4.4,4.26-4.46,3.24q2.53,2.16,5.27,4.09l3.9-4L41,135.36l-3.34,4.74c2,1.17,4.16,2.26,6.32,3.24l2.65-6,6.64,2.1L50.65,146c1.78.61,3.58,1.16,5.42,1.64l2.33-6.55,6.83,1.27-1.68,6.82q3.53.54,7.16.75l.06-6.93c1.94-.12,5.45.27,7,.21L78,150c2.46-.1,4.9-.31,7.3-.64l-1.64-7.06,6.72-1.38L92.68,148q2.86-.69,5.64-1.59l-2.54-6.87,6.23-2c.81,1.53,2.31,4.53,3.13,6.32a73.57,73.57,0,0,0,6.59-3.29c-.1-.15-.23-.34-.39-.54l-3.23-4.59,5.61-3,4,4.4c1.78-1.23,3.5-2.54,5.17-3.91a42,42,0,0,0-4.63-3.71c1-1.25,2.9-3.28,4-4.29l6,3.12a74.51,74.51,0,0,0,6.89-7.95" transform="translate(0 0)"/><path class="cls-3" d="M15,120.06A75,75,0,0,1,74.94,0L45,60Z" transform="translate(0 0)"/><path class="cls-4" d="M75.21,0A75.06,75.06,0,0,1,135.1,119.94L105.17,60Z" transform="translate(0 0)"/><path class="cls-5" d="M349.12,35.64H313.25v2.2c.45,0,1.11.18,2,.36a12.07,12.07,0,0,1,2.08.62,2.68,2.68,0,0,1,1.45,1.2,3.67,3.67,0,0,1,.36,1.67V69.85a3.53,3.53,0,0,1-.4,1.8,2.58,2.58,0,0,1-1.41,1.1,7.46,7.46,0,0,1-1.88.38l-2.17.24v2.19h21.53V73.37c-.72-.07-1.43-.18-2.16-.32a9.18,9.18,0,0,1-1.7-.47,2.83,2.83,0,0,1-1.45-1.16,3.73,3.73,0,0,1-.38-1.74V56.46h4a9.38,9.38,0,0,1,3,.44,4.88,4.88,0,0,1,2.08,1.33,9.49,9.49,0,0,1,1.3,2.41,11.17,11.17,0,0,1,.87,3.08h2.14V46.92h-2.14a11.68,11.68,0,0,1-.8,2.83,7.28,7.28,0,0,1-1.37,2.35A5.08,5.08,0,0,1,336,53.46a9.81,9.81,0,0,1-2.93.39h-4V38.2h6.21c.79,0,1.65,0,2.59.09s1.68.12,2.24.19q1.86.26,3.92,2.88a17.32,17.32,0,0,1,2.88,4.94h2.19ZM303.38,73.37c-.46-.06-1.13-.16-2-.31a8.32,8.32,0,0,1-1.84-.48,2.85,2.85,0,0,1-1.45-1.19,3.67,3.67,0,0,1-.35-1.71V41.41a4.1,4.1,0,0,1,.35-1.74,2.25,2.25,0,0,1,1.45-1.16,17.81,17.81,0,0,1,1.88-.45c.66-.11,1.29-.18,1.89-.22v-2.2H285.64a16.17,16.17,0,0,1-.42,2.14,28,28,0,0,1-.81,2.82L276.11,62l-9.84-26.31H247.88v2.2a16.18,16.18,0,0,1,2.39.34,5.64,5.64,0,0,1,2.3,1.12,4.33,4.33,0,0,1,1.36,1.9,8.56,8.56,0,0,1,.45,3V64a27.71,27.71,0,0,1-.4,5.34A4.09,4.09,0,0,1,252.46,72a6.36,6.36,0,0,1-2.6,1c-1.06.2-1.83.32-2.29.38v2.19h17.16V73.37a18,18,0,0,1-2.55-.62,7.35,7.35,0,0,1-2.52-1.12,4.9,4.9,0,0,1-1.5-2.66,22.88,22.88,0,0,1-.46-5.31V39.39l10.09,27.43q.63,1.65,1.62,4.41c.67,1.84,1.09,3.07,1.25,3.69h3.55l13.73-35.08V69.66a3.45,3.45,0,0,1-.45,1.85A3,3,0,0,1,286,72.67a8.21,8.21,0,0,1-1.9.42c-.93.13-1.71.22-2.35.28v2.19h21.63Zm-78.19-2.62A7.1,7.1,0,0,1,219.75,73a6.62,6.62,0,0,1-3.21-.71A2.88,2.88,0,0,1,215,70.52V55.9l1.31-.07c.59,0,1.07,0,1.42,0q4.65,0,7.12,2.22a8.18,8.18,0,0,1,2.48,6.4,9,9,0,0,1-2.1,6.34m-2-19.76c-1.44,1.42-3.68,2.12-6.72,2.12H215V38.32l1.48-.08c.57,0,1,0,1.39,0q3.75,0,5.62,1.86a7,7,0,0,1,1.87,5.18A7.67,7.67,0,0,1,223.15,51m7.12,4.33a23.43,23.43,0,0,0-4.56-1v-.53a28.25,28.25,0,0,0,4.11-1.27,13.5,13.5,0,0,0,3.29-1.8,8.08,8.08,0,0,0,2.34-2.66,7.51,7.51,0,0,0,.81-3.56,7.33,7.33,0,0,0-3.63-6.64q-3.63-2.25-11.81-2.25H199.13v2.2c.58.09,1.25.22,2,.38a11.68,11.68,0,0,1,2,.6A2.76,2.76,0,0,1,204.67,40a4.18,4.18,0,0,1,.31,1.69V69.83a3.7,3.7,0,0,1-.38,1.78,2.72,2.72,0,0,1-1.42,1.11,8.39,8.39,0,0,1-1.86.4l-2.19.25v2.19h20.73a49.08,49.08,0,0,0,7.78-.53,19.91,19.91,0,0,0,5.84-1.83,8.87,8.87,0,0,0,3.67-3.3,9.73,9.73,0,0,0,1.28-5.14,8.37,8.37,0,0,0-1.13-4.4,10,10,0,0,0-2.92-3.11,15.79,15.79,0,0,0-4.11-1.93" transform="translate(0 0)"/><path class="cls-3" d="M310.7,109.9v-3.37H313c1.29,0,2.15.63,2.15,1.68s-.86,1.69-2.15,1.69Zm-1.31,4.32h1.31v-3.1h2.43a2.93,2.93,0,1,0,0-5.81h-3.74Zm-3.92,0h1.31v-8.91h-1.31Zm-3.92-8.91v3.76h-4.86v-3.76h-1.31v8.91h1.31v-3.93h4.86v3.93h1.31v-8.91Zm-11.66,9c2.1,0,3.24-1.14,3.24-2.65s-1.23-2.19-3-2.6c-1.47-.35-2.23-.64-2.23-1.47a1.54,1.54,0,0,1,1.7-1.35,3.82,3.82,0,0,1,2.55,1.09l.75-1a4.68,4.68,0,0,0-3.25-1.26,2.81,2.81,0,0,0-3.09,2.62c0,1.61,1.21,2.15,3,2.58,1.5.34,2.23.66,2.23,1.5s-.63,1.36-1.86,1.36A4.11,4.11,0,0,1,287,112l-.79,1a5.11,5.11,0,0,0,3.67,1.43m-11.08-7.83h2.26c1.28,0,2.15.63,2.15,1.68s-.87,1.69-2.15,1.69h-2.26Zm5.75,1.68a3,3,0,0,0-3.31-2.9H277.5v8.91h1.31v-3.1h2.05l2.18,3.1h1.5L282.27,111a2.87,2.87,0,0,0,2.29-2.78m-9.35-1.68v-1.22h-6.55v8.91h6.55V113H270v-2.71h4.72v-1.22H270v-2.54ZM259.6,113V106.5h1.84a3.27,3.27,0,1,1,0,6.52Zm-1.31,1.2h3.07c2.88,0,4.93-1.86,4.93-4.47s-2.05-4.44-4.93-4.44h-3.07Zm-8.48-3,1.81-4.23,1.82,4.23Zm4.91,3h1.45l-3.82-8.91H250.9l-3.83,8.91h1.45l.78-1.82h4.64Zm-9.31-7.69v-1.22h-6.54v8.91h6.54V113h-5.22v-2.71h4.72v-1.22h-4.72v-2.54ZM232.12,113v-7.69H230.8v8.91h6V113Z" transform="translate(0 0)"/><path class="cls-3" d="M362.78,98.41V90.72h-1.32v8.91h6V98.41Zm-9.53-1.78,1.81-4.22,1.82,4.22Zm4.91,3h1.46l-3.83-8.91h-1.45l-3.83,8.91H352l.77-1.82h4.65Zm-10.93,0h1.31V90.72h-1.31Zm-7.89-7.69h2.25c1.29,0,2.16.63,2.16,1.68s-.87,1.69-2.16,1.69h-2.25Zm5.74,1.68a3,3,0,0,0-3.31-2.9H338v8.91h1.31v-3.1h2.05l2.17,3.1h1.51L342.8,96.4a2.86,2.86,0,0,0,2.28-2.78m-9.35-1.68V90.72h-6.55v8.91h6.55V98.41h-5.22V95.7h4.72V94.48h-4.72V91.94ZM323,96h2.39v1.87a3.79,3.79,0,0,1-2.21.74,3.41,3.41,0,0,1,0-6.81,3.72,3.72,0,0,1,2.58,1.08l.92-.89a5.14,5.14,0,0,0-3.5-1.4,4.61,4.61,0,1,0,0,9.22,5.14,5.14,0,0,0,3.5-1.4V94.83H323Zm-12.2.66,1.81-4.22,1.82,4.22Zm4.91,3h1.46l-3.83-8.91h-1.45l-3.83,8.91h1.46l.77-1.82h4.65Zm-17.5,0h1.31V92.87l5.12,6.76H306V90.72h-1.31v6.76l-5.12-6.76h-1.31Zm-8.48-3,1.81-4.22,1.82,4.22Zm4.91,3h1.46l-3.83-8.91h-1.45L287,99.63h1.46l.77-1.82h4.65Zm-18.63,0h1.31V93.29l3.13,5.82,3.12-5.82v6.34h1.31V90.72h-1.31l-3.12,5.82-3.13-5.82H276ZM265.32,96h2.38v1.87a3.76,3.76,0,0,1-2.2.74,3.41,3.41,0,0,1,0-6.81,3.72,3.72,0,0,1,2.58,1.08L269,92a5.18,5.18,0,0,0-3.5-1.4,4.61,4.61,0,1,0,0,9.22,5.18,5.18,0,0,0,3.5-1.4V94.83h-3.68Zm-14.6,3.66H252V92.87l5.12,6.76h1.31V90.72h-1.31v6.76L252,90.72h-1.31Zm-4.08,0H248V90.72h-1.31Zm-7.76-4.32V91.94h2.25c1.29,0,2.16.63,2.16,1.68s-.87,1.69-2.16,1.69Zm-1.31,4.32h1.31v-3.1h2.44a2.93,2.93,0,1,0,0-5.81h-3.75Zm-6.86-1A3.41,3.41,0,1,1,234,95.17a3.39,3.39,0,0,1-3.27,3.41m0,1.2a4.61,4.61,0,1,0-4.63-4.61,4.66,4.66,0,0,0,4.63,4.61m-11-1.37V90.72h-1.32v8.91h6V98.41Zm-3.5-6.47V90.72h-6.55v8.91h6.55V98.41H211V95.7h4.72V94.48H211V91.94Zm-10-1.22-3.1,7.22L200,90.72h-1.45l3.83,8.91h1.45l3.82-8.91Zm-9.31,1.22V90.72h-6.55v8.91h6.55V98.41h-5.23V95.7h4.73V94.48h-4.73V91.94Zm-15.61,6.5V91.91h1.84a3.27,3.27,0,1,1,0,6.53ZM180,99.63h3.07c2.88,0,4.93-1.86,4.93-4.46s-2.05-4.45-4.93-4.45H180Z" transform="translate(0 0)"/></g></g></g></svg>