<?xml version="1.0" encoding="UTF-8" ?>
<!DOCTYPE svg PUBLIC "-//W3C//DTD SVG 1.1//EN" "http://www.w3.org/Graphics/SVG/1.1/DTD/svg11.dtd">
<svg width="591pt" height="591pt" viewBox="0 0 591 591" version="1.1" xmlns="http://www.w3.org/2000/svg">
<g id="#ffffffff">
</g>
<g id="#de4252ff">
<path fill="#de4252" opacity="1.00" d=" M 167.95 112.07 C 207.74 107.91 248.89 117.07 283.03 137.95 C 287.15 140.27 290.56 143.89 295.06 145.47 C 298.29 145.57 300.81 143.04 303.47 141.53 C 330.11 123.47 361.63 111.95 393.98 111.36 C 420.46 111.00 447.43 116.34 470.68 129.33 C 487.60 138.76 502.06 153.19 509.95 171.02 C 519.78 193.19 519.95 219.04 511.91 241.78 C 501.72 270.86 480.59 294.98 455.94 312.92 C 439.34 325.19 420.59 334.27 401.20 341.18 C 398.46 342.11 395.31 342.54 392.77 340.85 C 393.67 337.18 396.77 334.83 399.60 332.64 C 415.28 320.86 430.29 308.06 443.35 293.39 C 456.14 279.01 467.09 262.61 473.11 244.21 C 477.57 230.14 478.96 214.68 474.61 200.39 C 469.49 183.10 457.19 168.47 441.96 159.07 C 423.87 147.76 402.15 143.44 381.01 143.87 C 352.79 144.67 325.50 155.41 302.61 171.62 C 300.01 173.25 296.93 176.06 293.69 174.34 C 289.58 171.88 286.28 168.31 282.21 165.78 C 260.59 151.46 234.84 143.65 208.97 142.69 C 186.78 141.94 163.79 146.60 145.15 159.11 C 133.06 167.09 123.30 178.83 118.59 192.61 C 113.00 208.74 113.84 226.88 120.45 242.59 C 126.34 256.84 136.60 268.84 148.19 278.82 C 166.37 294.31 187.90 305.26 209.99 314.01 C 232.63 322.76 256.15 329.43 280.20 332.88 C 287.29 333.64 294.71 335.26 301.65 332.75 C 316.75 327.85 330.95 320.21 343.57 310.60 C 357.68 299.84 369.85 285.89 376.20 269.15 C 380.70 257.46 382.50 244.62 380.76 232.19 C 379.00 220.95 372.35 210.00 361.76 205.16 C 350.44 199.94 336.83 202.09 326.37 208.35 C 315.86 214.55 308.24 224.31 300.69 233.64 C 298.96 235.60 296.26 238.75 293.47 236.68 C 290.90 234.07 289.54 230.56 287.37 227.65 C 279.94 217.07 269.77 207.83 257.27 203.84 C 246.98 200.56 235.03 200.79 225.72 206.70 C 218.47 211.08 213.54 218.80 212.03 227.07 C 210.44 236.73 212.81 246.77 217.81 255.11 C 222.34 262.96 228.77 269.53 235.68 275.32 C 251.33 287.98 269.75 296.68 288.56 303.55 C 291.08 304.26 292.91 306.30 292.63 309.03 C 288.74 310.77 284.47 309.81 280.43 309.26 C 260.16 305.99 240.37 299.78 221.77 291.10 C 208.15 284.53 194.97 276.53 184.23 265.77 C 173.75 255.49 165.90 241.87 164.85 227.01 C 163.40 213.28 168.93 199.31 178.63 189.63 C 189.70 178.43 205.54 173.13 221.03 172.50 C 244.79 171.29 268.13 181.65 285.25 197.76 C 288.46 200.59 290.89 204.24 294.34 206.79 C 296.18 207.66 297.79 206.17 299.09 205.08 C 316.05 189.62 336.86 177.14 359.93 174.12 C 378.46 171.49 398.50 177.76 410.98 192.00 C 421.58 203.86 425.60 220.39 424.53 236.00 C 423.21 254.23 415.61 271.44 405.50 286.45 C 396.58 299.58 385.71 311.38 373.39 321.37 C 362.66 330.10 350.52 336.87 338.22 343.10 C 326.34 348.83 314.07 354.01 301.18 357.02 C 294.66 358.72 287.94 357.36 281.38 356.69 C 240.96 351.83 201.17 340.12 165.28 320.78 C 138.32 306.14 113.21 286.89 95.32 261.70 C 80.85 241.31 71.97 215.98 74.84 190.79 C 77.13 169.69 88.16 149.93 104.41 136.39 C 122.21 121.57 145.19 114.41 167.95 112.07 Z" />
<path fill="#de4252" opacity="1.00" d=" M 368.29 412.30 C 372.83 403.82 376.75 395.00 381.69 386.76 C 392.36 407.33 402.69 428.08 413.25 448.72 C 416.84 456.12 420.96 463.26 424.22 470.82 C 418.79 473.47 413.36 476.11 407.84 478.57 C 405.03 473.34 403.00 467.76 400.12 462.57 C 387.76 462.66 375.39 462.38 363.05 462.69 C 359.60 467.60 358.07 473.63 355.11 478.86 C 349.57 476.23 344.07 473.52 338.54 470.85 C 348.13 451.18 358.44 431.85 368.29 412.30 M 381.27 422.58 C 377.67 430.21 373.87 437.77 370.83 445.65 C 377.87 445.70 384.92 445.64 391.97 445.68 C 388.56 437.91 385.20 430.10 381.27 422.58 Z" />
<path fill="#de4252" opacity="1.00" d=" M 208.36 389.51 C 218.04 387.59 228.45 389.01 237.04 393.95 C 247.13 399.57 254.36 409.67 257.23 420.78 C 261.14 435.45 257.68 452.13 247.48 463.53 C 236.41 476.22 217.25 480.20 201.70 474.27 C 191.94 470.65 183.87 462.99 179.38 453.64 C 172.52 439.49 173.18 421.85 181.49 408.45 C 187.35 398.81 197.25 391.66 208.36 389.51 M 211.34 408.38 C 204.09 410.14 198.48 416.23 196.17 423.18 C 192.27 434.33 195.60 448.57 206.01 455.00 C 213.59 459.46 224.14 458.71 230.62 452.60 C 241.41 442.76 241.70 423.89 231.37 413.62 C 226.29 408.40 218.31 406.62 211.34 408.38 Z" />
<path fill="#de4252" opacity="1.00" d=" M 276.99 390.02 C 283.24 389.95 289.49 389.88 295.73 390.09 C 295.79 412.63 295.45 435.19 295.89 457.72 C 305.24 457.75 314.59 457.60 323.94 457.77 C 324.00 463.81 324.00 469.85 323.93 475.89 C 308.30 475.88 292.66 475.89 277.03 475.88 C 276.88 447.26 276.94 418.64 276.99 390.02 Z" />
</g>
</svg>
